<svg width="18" height="18" viewBox="0 0 18 18" fill="none" xmlns="http://www.w3.org/2000/svg">
<path d="M3.17449 3.174C3.22518 2.49236 3.53173 1.8551 4.03265 1.39004C4.53356 0.924974 5.1918 0.666515 5.87533 0.666504H13.3753C13.8951 0.666504 14.4099 0.768889 14.8901 0.967814C15.3704 1.16674 15.8067 1.45831 16.1743 1.82587C16.5419 2.19344 16.8334 2.6298 17.0323 3.11005C17.2313 3.5903 17.3337 4.10502 17.3337 4.62484V9.62484C17.3336 10.3084 17.0752 10.9666 16.6101 11.4675C16.1451 11.9684 15.5078 12.275 14.8262 12.3257C14.7755 13.0073 14.4689 13.6446 13.968 14.1096C13.4671 14.5747 12.8088 14.8332 12.1253 14.8332H7.88949L4.83366 17.1248C4.14699 17.6398 3.16699 17.1498 3.16699 16.2915V14.8248C2.48684 14.7724 1.85153 14.4651 1.38806 13.9646C0.92458 13.464 0.66707 12.807 0.666992 12.1248V5.87484C0.667003 5.19132 0.925462 4.53308 1.39052 4.03216C1.85559 3.53124 2.49285 3.22469 3.17449 3.174V3.174ZM4.43199 3.1665H12.1253C12.8436 3.1665 13.5325 3.45185 14.0404 3.95976C14.5483 4.46767 14.8337 5.15654 14.8337 5.87484V11.0682C15.1807 11.0181 15.4981 10.8446 15.7277 10.5795C15.9573 10.3144 16.0836 9.97551 16.0837 9.62484V4.62484C16.0837 3.90654 15.7983 3.21767 15.2904 2.70976C14.7825 2.20185 14.0936 1.9165 13.3753 1.9165H5.87533C5.52465 1.91651 5.18573 2.04288 4.92065 2.27245C4.65557 2.50203 4.48209 2.81943 4.43199 3.1665ZM3.37533 13.5832H4.41699V15.8748L7.47283 13.5832H12.1253C12.5121 13.5832 12.883 13.4295 13.1565 13.156C13.43 12.8825 13.5837 12.5116 13.5837 12.1248V5.87484C13.5837 5.48806 13.43 5.11713 13.1565 4.84364C12.883 4.57015 12.5121 4.4165 12.1253 4.4165H3.37533C2.98855 4.4165 2.61762 4.57015 2.34413 4.84364C2.07064 5.11713 1.91699 5.48806 1.91699 5.87484V12.1248C1.91699 12.9298 2.57033 13.5832 3.37533 13.5832Z" fill="white"/>
</svg>
