<svg width="17" height="17" viewBox="0 0 17 17" fill="none" xmlns="http://www.w3.org/2000/svg">
<path d="M16.4003 3.55861L13.6603 0.818608C13.3027 0.482704 12.8341 0.289967 12.3436 0.27706C11.8532 0.264153 11.3751 0.431977 11.0003 0.748608L2.0003 9.74861C1.67706 10.0746 1.4758 10.5018 1.4303 10.9586L1.0003 15.1286C0.986826 15.2751 1.00583 15.4227 1.05596 15.561C1.10608 15.6993 1.1861 15.8248 1.2903 15.9286C1.38374 16.0213 1.49455 16.0946 1.61639 16.1444C1.73823 16.1941 1.86869 16.2194 2.0003 16.2186H2.0903L6.2603 15.8386C6.71709 15.7931 7.14433 15.5918 7.4703 15.2686L16.4703 6.26861C16.8196 5.89958 17.0084 5.40712 16.9953 4.89914C16.9822 4.39117 16.7682 3.90912 16.4003 3.55861ZM13.0003 6.89861L10.3203 4.21861L12.2703 2.21861L15.0003 4.94861L13.0003 6.89861Z" fill="black"/>
</svg>
