<svg width="14" height="14" viewBox="0 0 14 14" fill="none" xmlns="http://www.w3.org/2000/svg">
<path d="M12.3745 11.4652C13.0926 10.6012 13.592 9.57702 13.8305 8.47924C14.069 7.38146 14.0396 6.24238 13.7448 5.15836C13.45 4.07434 12.8985 3.07727 12.1368 2.25149C11.3752 1.42571 10.4258 0.795529 9.36913 0.414244C8.31242 0.0329591 7.17943 -0.0882085 6.06598 0.0609915C4.95254 0.210191 3.89141 0.62537 2.97236 1.2714C2.05331 1.91744 1.30337 2.77532 0.785996 3.77249C0.268619 4.76965 -0.000981296 5.87676 2.68382e-06 7.00015C0.000380271 8.63325 0.575875 10.214 1.6255 11.4652L1.6155 11.4737C1.6505 11.5157 1.6905 11.5517 1.7265 11.5932C1.7715 11.6447 1.82 11.6932 1.8665 11.7432C2.0065 11.8952 2.1505 12.0412 2.3015 12.1782C2.3475 12.2202 2.395 12.2592 2.4415 12.2992C2.6015 12.4372 2.766 12.5682 2.9365 12.6902C2.9585 12.7052 2.9785 12.7247 3.0005 12.7402V12.7342C4.17155 13.5582 5.56855 14.0005 7.0005 14.0005C8.43245 14.0005 9.82945 13.5582 11.0005 12.7342V12.7402C11.0225 12.7247 11.042 12.7052 11.0645 12.6902C11.2345 12.5677 11.3995 12.4372 11.5595 12.2992C11.606 12.2592 11.6535 12.2197 11.6995 12.1782C11.8505 12.0407 11.9945 11.8952 12.1345 11.7432C12.181 11.6932 12.229 11.6447 12.2745 11.5932C12.31 11.5517 12.3505 11.5157 12.3855 11.4732L12.3745 11.4652ZM7 3.00015C7.44501 3.00015 7.88003 3.13211 8.25004 3.37934C8.62005 3.62658 8.90843 3.97798 9.07873 4.38911C9.24903 4.80025 9.29359 5.25265 9.20677 5.68911C9.11995 6.12556 8.90566 6.52647 8.59099 6.84114C8.27632 7.15581 7.87541 7.3701 7.43896 7.45692C7.0025 7.54374 6.5501 7.49918 6.13897 7.32888C5.72783 7.15858 5.37643 6.8702 5.1292 6.50018C4.88196 6.13017 4.75 5.69516 4.75 5.25015C4.75 4.65341 4.98706 4.08112 5.40901 3.65916C5.83097 3.2372 6.40327 3.00015 7 3.00015V3.00015ZM3.0035 11.4652C3.01218 10.8086 3.27898 10.1819 3.74618 9.72062C4.21339 9.25931 4.84343 9.00049 5.5 9.00015H8.5C9.15658 9.00049 9.78662 9.25931 10.2538 9.72062C10.721 10.1819 10.9878 10.8086 10.9965 11.4652C9.89992 12.4533 8.47613 13.0002 7 13.0002C5.52387 13.0002 4.10008 12.4533 3.0035 11.4652V11.4652Z" fill="#7C7C7C"/>
</svg>
